<svg width="332" height="123" viewBox="0 0 332 123" fill="none" xmlns="http://www.w3.org/2000/svg">
<path fill-rule="evenodd" clip-rule="evenodd" d="M54.64 9.59399C54.174 8.74399 53.895 7.77399 53.828 6.64399L53.802 6.08599C53.735 4.92999 53.882 3.90599 54.24 3.00299C54.6 2.09899 55.144 1.39499 55.876 0.876994C56.606 0.358994 57.458 0.0669936 58.428 0.0129936C59.412 -0.0530064 60.289 0.132994 61.074 0.557994C61.858 0.982994 62.483 1.62099 62.934 2.47199C63.414 3.32199 63.679 4.31899 63.746 5.46199L63.772 5.97999C63.839 7.13599 63.706 8.15999 63.347 9.04999C63.001 9.93999 62.457 10.644 61.725 11.162C60.994 11.681 60.143 11.96 59.159 12.026C58.202 12.079 57.311 11.906 56.527 11.481C55.743 11.069 55.106 10.445 54.64 9.59399ZM58.561 1.99399C57.751 2.04599 57.139 2.40499 56.74 3.05599C56.328 3.72099 56.168 4.65099 56.234 5.87299L56.288 6.41799C56.354 7.61399 56.633 8.51799 57.112 9.15599C57.59 9.79399 58.242 10.086 59.066 10.033C59.877 9.99299 60.476 9.63399 60.874 8.96999C61.273 8.30499 61.433 7.37499 61.366 6.15299L61.326 5.58099C61.26 4.35899 60.981 3.44099 60.502 2.83099C60.023 2.21899 59.372 1.94099 58.561 1.99399ZM45.16 14.736L43.897 10.802L45.917 10.152C47.234 9.72599 48.177 9.07499 48.723 8.21099C49.268 7.33399 49.361 6.35099 49.015 5.26099C48.8066 4.57963 48.4159 3.96823 47.885 3.49299C47.367 3.04199 46.728 2.76299 45.997 2.65599C45.267 2.54999 44.482 2.64299 43.631 2.90899L39.271 4.30399L42.86 15.467L45.16 14.736ZM44.282 4.75599C44.854 4.58299 45.359 4.60999 45.785 4.84899C46.21 5.08899 46.515 5.47399 46.689 6.01899C46.861 6.54899 46.835 7.01499 46.609 7.39999C46.383 7.78599 45.958 8.07799 45.359 8.27699L43.312 8.94199L42.182 5.43399L44.282 4.75599ZM33.528 20.796L28.264 12.571L32.226 10.046L37.476 18.272L39.524 16.969L33.209 7.09599L25.179 12.226L31.481 22.099L33.528 20.796ZM69.581 10.576C70.219 11.135 70.991 11.506 71.895 11.719L72.041 11.759L71.709 13.221L73.982 13.739L74.314 12.277C75.804 12.623 77.093 12.45 78.156 11.772C79.233 11.095 79.924 10.085 80.23 8.71599C80.443 7.78599 80.43 6.92199 80.19 6.09799C79.9628 5.29717 79.5051 4.58081 78.874 4.03799C78.2179 3.46628 77.4259 3.0727 76.574 2.89499L76.428 2.86899L76.76 1.38099L74.487 0.861994L74.181 2.32399L73.969 2.27099C73.078 2.08499 72.24 2.11099 71.429 2.35099C70.619 2.58999 69.94 3.02799 69.369 3.66599C68.81 4.30399 68.425 5.07499 68.212 5.99199C68.012 6.89499 68.026 7.74599 68.265 8.54299C68.505 9.34099 68.943 10.018 69.581 10.576ZM76.002 4.79599L76.122 4.82199C76.933 5.00799 77.505 5.39399 77.824 5.99199C78.143 6.58999 78.209 7.32099 78.01 8.19799C77.824 9.03499 77.452 9.64599 76.893 10.032C76.348 10.417 75.683 10.523 74.913 10.351L74.753 10.311L76.002 4.79599ZM70.432 6.49599C70.632 5.60599 71.017 4.95599 71.576 4.56999C72.134 4.18399 72.799 4.06499 73.583 4.24999L73.729 4.28999L72.479 9.80599L72.359 9.77899C71.549 9.59299 70.977 9.22099 70.645 8.63599C70.325 8.03799 70.246 7.33399 70.432 6.49599ZM84.684 15.081L89.51 17.593L88.62 19.32L81.653 15.693L87.064 5.30099L94.017 8.91499L93.113 10.656L88.3 8.14599L87.01 10.617L91.119 12.77L90.255 14.444L86.134 12.304L84.684 15.081ZM94.282 23.958C95.319 24.848 96.396 25.301 97.512 25.301C98.616 25.301 99.626 24.849 100.517 23.958L98.682 22.39C98.177 22.895 97.672 23.161 97.167 23.174C96.661 23.188 96.13 22.962 95.571 22.47C94.946 21.925 94.681 21.314 94.774 20.623C94.867 19.932 95.319 19.108 96.143 18.151L96.715 17.473C97.512 16.557 98.257 16.012 98.935 15.839C99.613 15.666 100.264 15.839 100.862 16.357C101.421 16.836 101.726 17.327 101.78 17.819C101.833 18.311 101.633 18.869 101.181 19.48L103.016 21.048C103.774 19.972 104.08 18.882 103.92 17.806C103.76 16.716 103.176 15.733 102.152 14.856C101.407 14.218 100.61 13.832 99.759 13.699C98.895 13.567 98.044 13.699 97.179 14.085C96.316 14.47 95.519 15.095 94.787 15.958L94.322 16.503C93.165 17.845 92.593 19.174 92.58 20.503C92.58 21.819 93.138 22.975 94.282 23.958ZM102.458 33.034C101.607 31.799 101.342 30.55 101.674 29.261C102.006 27.985 102.897 26.829 104.359 25.819L104.944 25.407C105.862 24.756 106.792 24.357 107.723 24.184C108.653 24.024 109.517 24.104 110.315 24.45C111.113 24.796 111.791 25.367 112.349 26.164C113.12 27.267 113.453 28.37 113.333 29.46C113.213 30.55 112.655 31.52 111.658 32.383L110.275 30.403C110.86 29.925 111.193 29.433 111.259 28.942C111.325 28.45 111.153 27.905 110.727 27.294C110.275 26.629 109.69 26.31 108.986 26.31C108.281 26.31 107.43 26.656 106.433 27.347L105.702 27.852C104.665 28.569 104.014 29.261 103.761 29.912C103.495 30.562 103.602 31.227 104.08 31.905C104.506 32.516 104.958 32.875 105.449 32.981C105.941 33.088 106.5 32.955 107.111 32.596L108.494 34.576C107.404 35.214 106.327 35.413 105.25 35.134C104.173 34.855 103.243 34.164 102.458 33.034ZM107.537 41.779L116.457 43.493L109.159 46.177L109.996 48.45L120.99 44.397L120.153 42.124L111.219 40.424L118.531 37.726L117.707 35.466L106.699 39.506L107.537 41.779ZM116.244 51.029L116.816 50.975C117.959 50.869 118.996 50.989 119.914 51.321C120.831 51.653 121.562 52.184 122.094 52.889C122.626 53.606 122.945 54.443 123.038 55.414C123.131 56.384 122.985 57.274 122.586 58.071C122.187 58.869 121.575 59.52 120.738 60.011C119.9 60.503 118.917 60.809 117.773 60.915L117.255 60.968C116.098 61.088 115.075 60.968 114.171 60.649C113.267 60.317 112.549 59.799 112.004 59.095C111.459 58.377 111.139 57.527 111.046 56.557C110.953 55.587 111.113 54.696 111.498 53.899C111.884 53.089 112.495 52.45 113.32 51.945C114.157 51.44 115.128 51.136 116.244 51.029ZM120.273 57.553C120.857 57.048 121.123 56.397 121.044 55.586C120.964 54.789 120.592 54.191 119.927 53.806C119.262 53.434 118.318 53.301 117.109 53.407L116.537 53.46C115.34 53.567 114.436 53.872 113.825 54.377C113.2 54.869 112.934 55.533 113.014 56.357C113.094 57.167 113.466 57.752 114.144 58.125C114.822 58.497 115.766 58.63 116.976 58.523L117.547 58.47C118.77 58.364 119.674 58.045 120.273 57.553ZM122.665 69.075L123.077 66.695L111.525 64.715L111.112 67.095L116.071 67.945L115.274 72.583L110.328 71.733L109.916 74.111L121.469 76.091L121.881 73.712L117.188 72.902L117.986 68.264L122.665 69.075ZM109.983 80.821L108.122 79.08L109.212 76.741L118.026 85.605L117.082 87.638L104.599 86.708L105.675 84.382L108.215 84.662L109.983 80.821ZM114.848 85.392L111.472 82.23L110.249 84.887L114.848 85.392ZM104.532 91.997C104.227 91.399 104.24 90.841 104.572 90.323L104.798 89.99L103.309 88.741L102.911 89.22C102.326 89.924 102.007 90.588 101.953 91.24C101.9 91.877 102.086 92.568 102.525 93.286C102.964 94.016 103.682 94.854 104.705 95.811L107.736 98.628L105.716 101.02L98.258 94.721L96.702 96.568L105.662 104.13L110.728 98.123L106.753 94.509C105.569 93.432 104.838 92.595 104.532 91.997ZM83.897 105.774L85.924 104.454L92.328 114.272L90.301 115.593L83.897 105.774ZM90.453 101.512C89.337 102.243 88.645 103.12 88.34 104.143C88.047 105.153 88.207 106.149 88.832 107.093C89.456 108.036 90.281 108.568 91.318 108.688C92.355 108.807 93.458 108.488 94.615 107.744L96.197 106.721L98.51 110.256L100.544 108.927L94.136 99.107L90.453 101.512ZM93.471 106.149C92.953 106.468 92.461 106.601 91.996 106.535C91.53 106.468 91.158 106.216 90.866 105.764C90.56 105.286 90.466 104.807 90.586 104.329C90.706 103.851 91.026 103.439 91.544 103.093L93.152 102.043L95.12 105.06L93.471 106.149ZM149.471 15.933V24.677H152.874C153.871 24.663 154.642 24.451 155.174 24.012C155.719 23.574 155.985 22.936 155.985 22.099C155.985 21.607 155.852 21.195 155.599 20.849C155.333 20.5076 154.958 20.2684 154.536 20.172C154.921 20.026 155.227 19.786 155.453 19.454C155.679 19.135 155.785 18.75 155.785 18.324C155.785 17.54 155.506 16.956 154.961 16.544C154.403 16.132 153.605 15.933 152.542 15.933H149.471ZM152.608 19.6H151.279V17.394H152.542C153.034 17.394 153.406 17.487 153.632 17.66C153.858 17.833 153.977 18.112 153.977 18.51C153.977 19.215 153.512 19.587 152.608 19.6ZM151.279 23.241V20.876H152.927C153.765 20.889 154.177 21.301 154.177 22.099C154.177 22.457 154.057 22.736 153.818 22.936C153.579 23.136 153.246 23.241 152.821 23.241H151.279ZM165.105 21.766C165.039 22.71 164.693 23.454 164.068 23.986C163.443 24.53 162.619 24.796 161.596 24.796C160.479 24.796 159.588 24.424 158.95 23.666C158.312 22.909 157.979 21.872 157.979 20.557V20.025C157.979 19.188 158.126 18.444 158.418 17.806C158.711 17.168 159.136 16.676 159.694 16.331C160.24 15.986 160.878 15.826 161.609 15.826C162.619 15.826 163.43 16.092 164.055 16.636C164.666 17.182 165.025 17.939 165.118 18.909H163.31C163.271 18.338 163.111 17.939 162.845 17.673C162.579 17.421 162.167 17.288 161.609 17.288C161.011 17.288 160.559 17.5 160.253 17.939C159.96 18.364 159.801 19.042 159.801 19.946V20.61C159.801 21.554 159.947 22.245 160.226 22.683C160.519 23.122 160.957 23.334 161.582 23.334C162.141 23.334 162.553 23.201 162.832 22.949C163.111 22.696 163.271 22.298 163.31 21.766H165.105ZM169.067 20.889H172.523V19.481H169.067V17.394H173.108V15.933H167.259V24.677H173.122V23.228H169.067V20.889ZM177.07 21.619V24.689H175.262V15.945H178.678C179.33 15.945 179.915 16.065 180.407 16.305C180.912 16.543 181.284 16.889 181.563 17.327C181.829 17.766 181.962 18.271 181.962 18.842C181.962 19.706 181.67 20.37 181.085 20.875C180.5 21.367 179.689 21.62 178.652 21.62H177.07V21.619ZM177.07 20.144H178.678C179.157 20.144 179.516 20.038 179.768 19.812C180.021 19.586 180.141 19.268 180.141 18.856C180.141 18.43 180.008 18.085 179.755 17.819C179.503 17.553 179.157 17.42 178.705 17.407H177.056V20.144H177.07ZM190.909 22.775C191.201 22.125 191.361 21.367 191.361 20.503V20.118C191.361 19.254 191.201 18.496 190.895 17.845C190.59 17.181 190.151 16.675 189.579 16.33C189.021 15.972 188.37 15.799 187.638 15.799C186.907 15.799 186.256 15.985 185.697 16.33C185.12 16.6956 184.662 17.2223 184.381 17.845C184.076 18.496 183.916 19.254 183.916 20.118V20.556C183.929 21.393 184.076 22.138 184.395 22.789C184.7 23.439 185.139 23.945 185.711 24.29C186.282 24.636 186.921 24.809 187.652 24.809C188.34 24.8179 189.017 24.6336 189.606 24.277C190.176 23.912 190.628 23.3905 190.909 22.775ZM189.034 18.018C189.367 18.496 189.526 19.188 189.526 20.104V20.53C189.526 21.433 189.353 22.124 189.034 22.603C188.702 23.081 188.237 23.32 187.638 23.32C187.014 23.32 186.548 23.068 186.216 22.576C185.884 22.084 185.724 21.393 185.724 20.503V20.078C185.737 19.161 185.897 18.47 186.229 18.005C186.548 17.54 187.014 17.3 187.625 17.3C188.237 17.3 188.702 17.54 189.034 18.018ZM200.507 21.766C200.441 22.71 200.095 23.454 199.457 23.986C198.832 24.53 198.008 24.796 196.984 24.796C195.867 24.796 194.977 24.424 194.339 23.666C193.701 22.909 193.368 21.872 193.368 20.557V20.025C193.368 19.188 193.514 18.444 193.807 17.806C194.099 17.168 194.525 16.676 195.083 16.331C195.628 15.986 196.266 15.826 196.997 15.826C198.008 15.826 198.819 16.092 199.444 16.636C200.055 17.182 200.414 17.939 200.507 18.909H198.699C198.659 18.338 198.5 17.939 198.234 17.673C197.968 17.421 197.556 17.288 196.997 17.288C196.399 17.288 195.947 17.5 195.641 17.939C195.349 18.364 195.189 19.042 195.189 19.946V20.61C195.189 21.554 195.336 22.245 195.615 22.683C195.907 23.122 196.359 23.334 196.971 23.334C197.529 23.334 197.941 23.201 198.221 22.949C198.5 22.696 198.659 22.298 198.699 21.766H200.507ZM208.511 23.986C209.149 23.454 209.494 22.71 209.561 21.766H207.753C207.726 22.298 207.567 22.696 207.288 22.949C207.008 23.201 206.596 23.334 206.038 23.334C205.426 23.334 204.974 23.122 204.682 22.684C204.403 22.244 204.256 21.554 204.256 20.61V19.946C204.256 19.042 204.416 18.364 204.708 17.939C205.014 17.5 205.466 17.288 206.064 17.288C206.623 17.288 207.035 17.421 207.301 17.673C207.567 17.939 207.726 18.338 207.766 18.909H209.574C209.481 17.939 209.122 17.182 208.511 16.637C207.886 16.092 207.075 15.827 206.064 15.827C205.333 15.827 204.695 15.986 204.137 16.331C203.578 16.677 203.153 17.168 202.861 17.806C202.568 18.444 202.422 19.188 202.422 20.026V20.557C202.422 21.873 202.754 22.909 203.392 23.667C204.03 24.424 204.921 24.797 206.038 24.797C207.062 24.797 207.886 24.53 208.511 23.986ZM217.005 15.933H218.813V24.677H217.005V18.87L213.496 24.678H211.688V15.934H213.496V21.754L217.005 15.934V15.933ZM228.465 15.933H226.657L223.147 21.753V15.933H221.339V24.676H223.147L226.657 18.869V24.676H228.465V15.933ZM226.431 14.936C226.803 14.603 227.002 14.178 227.002 13.646H225.779C225.779 13.899 225.699 14.098 225.553 14.231C225.407 14.377 225.207 14.444 224.942 14.444C224.676 14.444 224.463 14.364 224.317 14.231C224.171 14.098 224.091 13.899 224.091 13.647H222.854C222.854 14.178 223.041 14.617 223.426 14.936C223.812 15.268 224.303 15.427 224.928 15.427C225.553 15.427 226.045 15.268 226.431 14.936ZM237.85 21.766C237.784 22.71 237.438 23.454 236.813 23.986C236.189 24.53 235.364 24.796 234.341 24.796C233.224 24.796 232.333 24.424 231.695 23.666C231.057 22.909 230.725 21.872 230.725 20.557V20.025C230.725 19.188 230.871 18.444 231.163 17.806C231.456 17.168 231.881 16.676 232.44 16.331C232.985 15.986 233.623 15.826 234.354 15.826C235.364 15.826 236.175 16.092 236.8 16.636C237.412 17.182 237.771 17.939 237.864 18.909H236.056C236.016 18.338 235.856 17.939 235.59 17.673C235.324 17.421 234.912 17.288 234.354 17.288C233.756 17.288 233.304 17.5 232.998 17.939C232.705 18.364 232.546 19.042 232.546 19.946V20.61C232.546 21.554 232.692 22.245 232.971 22.683C233.264 23.122 233.703 23.334 234.327 23.334C234.886 23.334 235.298 23.201 235.577 22.949C235.856 22.696 236.016 22.298 236.056 21.766H237.85ZM241.812 21.102H242.849L245.109 24.677H247.249L244.271 20.079L246.97 15.933H244.777L242.636 19.441H241.812V15.933H240.004V24.677H241.812V21.102ZM255.731 20.503C255.731 21.367 255.571 22.124 255.279 22.775C254.998 23.3905 254.546 23.912 253.976 24.277C253.387 24.6336 252.71 24.8179 252.022 24.809C251.291 24.809 250.652 24.636 250.081 24.29C249.509 23.945 249.07 23.44 248.765 22.789C248.446 22.138 248.299 21.393 248.286 20.556V20.118C248.286 19.254 248.446 18.496 248.751 17.845C249.032 17.222 249.49 16.6953 250.068 16.33C250.652 15.9736 251.324 15.7896 252.008 15.799C252.74 15.799 253.391 15.972 253.949 16.33C254.521 16.676 254.96 17.18 255.266 17.845C255.571 18.496 255.731 19.254 255.731 20.118V20.503ZM253.896 20.104C253.896 19.187 253.737 18.496 253.404 18.018C253.072 17.54 252.607 17.3 251.995 17.3C251.384 17.3 250.918 17.54 250.599 18.005C250.267 18.47 250.107 19.161 250.094 20.078V20.503C250.094 21.393 250.254 22.084 250.586 22.576C250.918 23.068 251.384 23.32 252.008 23.32C252.607 23.32 253.085 23.081 253.404 22.603C253.723 22.124 253.896 21.433 253.896 20.53V20.104ZM259.799 20.889H263.256V19.481H259.799V17.394H263.841V15.933H257.991V24.677H263.854V23.228H259.799V20.889ZM156.464 33.34V42.085H154.656V38.775C154.092 38.8947 153.517 38.953 152.941 38.949C151.824 38.949 150.987 38.709 150.415 38.218C149.843 37.739 149.551 37.035 149.524 36.118V33.341H151.332V36.078C151.332 36.583 151.452 36.942 151.691 37.155C151.931 37.367 152.343 37.487 152.928 37.487C153.526 37.487 154.098 37.434 154.643 37.314V33.341L156.464 33.34ZM160.837 38.297H164.294V36.89H160.837V34.804H164.879V33.34H159.029V42.084H164.892V40.635H160.837V38.297ZM169.385 33.341L171.632 39.693L173.865 33.341H176.245V42.085H174.437V39.706L174.61 35.573L172.244 42.085H171.007L168.654 35.573L168.84 39.706V42.085H167.032V33.34L169.385 33.341ZM184.129 42.085H185.937V33.34H178.812V42.084H180.62V34.802H184.129V42.085ZM193.78 33.341H195.588V42.085H193.78V36.278L190.284 42.085H188.476V33.34H190.284V39.16L193.78 33.341ZM204.828 40.185C205.133 39.535 205.28 38.777 205.28 37.913V37.541C205.28 36.677 205.12 35.92 204.814 35.269C204.509 34.617 204.07 34.112 203.498 33.767C202.94 33.408 202.288 33.235 201.557 33.235C200.826 33.235 200.188 33.421 199.616 33.767C199.045 34.112 198.606 34.617 198.3 35.269C197.994 35.919 197.835 36.677 197.835 37.541V37.979C197.848 38.817 198.008 39.561 198.314 40.212C198.619 40.85 199.058 41.355 199.63 41.7C200.201 42.046 200.839 42.219 201.571 42.219C202.302 42.219 202.953 42.032 203.525 41.687C204.095 41.322 204.547 40.8005 204.828 40.185ZM202.966 35.428C203.299 35.906 203.458 36.598 203.458 37.514V37.953C203.458 38.856 203.286 39.547 202.966 40.026C202.634 40.491 202.169 40.73 201.571 40.73C200.946 40.73 200.48 40.491 200.148 40C199.816 39.494 199.656 38.803 199.656 37.913V37.488C199.67 36.571 199.829 35.88 200.161 35.415C200.48 34.95 200.946 34.71 201.557 34.71C202.169 34.71 202.634 34.95 202.966 35.428ZM214.666 42.085H212.858V38.337H209.348V42.085H207.54V33.34H209.348V36.888H212.858V33.34H214.666V42.085ZM218.481 42.099L219.079 40.291H222.243L222.855 42.099H224.769L221.499 33.355H219.823L216.566 42.099H218.481ZM221.764 38.829H219.571L220.661 35.56L221.764 38.83V38.829ZM232.187 34.803H229.515V42.085H227.707V34.803H225.062V33.34H232.187V34.802V34.803ZM239.499 42.085H241.307V33.34H239.499V36.888H235.99V33.34H234.182V42.084H235.99V38.336H239.499V42.085ZM251.012 37.913C251.012 38.777 250.852 39.534 250.546 40.185C250.266 40.8006 249.814 41.3222 249.244 41.687C248.655 42.0438 247.978 42.2281 247.289 42.219C246.558 42.219 245.92 42.046 245.348 41.7C244.777 41.355 244.338 40.85 244.032 40.212C243.713 39.561 243.567 38.817 243.554 37.979V37.541C243.554 36.677 243.713 35.92 244.019 35.269C244.325 34.617 244.763 34.112 245.335 33.767C245.92 33.4121 246.592 33.2278 247.276 33.235C248.007 33.235 248.659 33.408 249.217 33.767C249.789 34.112 250.227 34.617 250.533 35.269C250.839 35.919 250.998 36.677 250.998 37.541V37.913H251.012ZM249.177 37.514C249.177 36.597 249.018 35.906 248.685 35.428C248.353 34.95 247.888 34.71 247.276 34.71C246.665 34.71 246.199 34.95 245.88 35.415C245.548 35.88 245.388 36.571 245.375 37.488V37.913C245.375 38.803 245.535 39.494 245.867 39.999C246.199 40.491 246.665 40.73 247.289 40.73C247.888 40.73 248.353 40.491 248.685 40.026C249.004 39.547 249.177 38.856 249.177 37.953V37.514ZM255.079 38.297H258.536V36.89H255.079V34.804H259.121V33.34H253.271V42.084H259.134V40.635H255.079V38.297ZM157.594 61.647H155.932V59.494H150.654V61.634H148.952L148.859 58.045H149.524C149.883 57.753 150.149 57.315 150.348 56.743C150.548 56.172 150.681 55.454 150.747 54.603L151 50.75H156.73V58.045H157.753L157.594 61.647ZM151.571 58.045H154.908V52.212H152.688L152.542 54.511C152.422 56.052 152.103 57.235 151.571 58.045ZM159.694 50.75V59.494H163.084C164.081 59.481 164.852 59.254 165.384 58.83C165.929 58.391 166.195 57.753 166.195 56.916C166.195 56.424 166.062 56.012 165.81 55.666C165.544 55.3246 165.168 55.0854 164.746 54.989C165.132 54.843 165.451 54.604 165.663 54.272C165.889 53.952 165.996 53.567 165.996 53.142C165.996 52.358 165.717 51.773 165.172 51.362C164.613 50.949 163.816 50.75 162.752 50.75H159.694ZM162.818 54.418H161.489V52.198H162.752C163.244 52.198 163.616 52.278 163.842 52.464C164.068 52.65 164.188 52.929 164.188 53.328C164.188 54.032 163.722 54.404 162.818 54.418ZM161.489 58.058V55.693H163.138C163.975 55.707 164.387 56.119 164.387 56.916C164.387 57.275 164.268 57.554 164.028 57.753C163.789 57.953 163.457 58.059 163.031 58.059L161.489 58.058ZM173.759 50.75H175.567V59.494H173.759V53.687L170.249 59.494H168.441V50.75H170.249V56.57L173.759 50.75ZM184.501 55.933H185.551L187.399 59.494H189.659L186.973 54.804L189.513 50.75H187.279L185.378 54.285H184.501V50.75H182.706V54.285H181.815L179.861 50.75H177.614L180.22 54.803L177.481 59.494H179.741L181.643 55.933H182.706V59.494H184.501V55.933ZM196.798 55.707H193.341V58.045H197.409V59.494H191.533V50.75H197.396V52.212H193.341V54.298H196.798V55.707ZM204.855 59.494H206.663V50.75H204.855V54.298H201.345V50.75H199.537V59.494H201.345V55.747H204.855V59.494ZM214.519 50.75H216.327V59.494H214.519V53.687L211.01 59.494H209.215V50.75H211.01V56.57L214.519 50.75ZM220.688 55.707H224.144V54.298H220.688V52.212H224.729V50.75H218.88V59.494H224.743V58.045H220.688V55.707ZM156.61 76.902H154.802V69.62H151.292V76.902H149.484V68.158H156.61V76.902ZM165.849 74.988C166.142 74.35 166.301 73.593 166.301 72.729V72.344C166.301 71.48 166.142 70.722 165.836 70.071C165.53 69.421 165.091 68.915 164.52 68.57C163.961 68.21 163.31 68.038 162.579 68.038C161.848 68.038 161.21 68.224 160.638 68.57C160.066 68.915 159.628 69.42 159.322 70.071C159.016 70.722 158.856 71.48 158.856 72.344V72.782C158.87 73.619 159.016 74.364 159.335 75.015C159.641 75.653 160.08 76.157 160.651 76.503C161.223 76.849 161.861 77.021 162.592 77.021C163.337 77.021 163.975 76.835 164.546 76.49C165.105 76.13 165.543 75.64 165.849 74.988ZM163.988 70.244C164.32 70.722 164.48 71.414 164.48 72.33V72.756C164.48 73.659 164.307 74.35 163.988 74.829C163.656 75.307 163.19 75.546 162.592 75.546C161.967 75.546 161.502 75.294 161.17 74.802C160.837 74.31 160.678 73.619 160.678 72.729V72.304C160.691 71.387 160.851 70.696 161.183 70.231C161.502 69.766 161.967 69.526 162.579 69.526C163.19 69.526 163.656 69.766 163.988 70.244ZM179.769 76.902H177.961V69.62H174.464V76.902H172.656V68.158H179.769V76.902ZM184.156 76.915V73.845H185.751C186.788 73.845 187.599 73.593 188.184 73.101C188.769 72.596 189.061 71.931 189.061 71.068C189.061 70.496 188.928 69.992 188.662 69.553C188.384 69.1072 187.982 68.7518 187.506 68.53C187.001 68.29 186.416 68.17 185.764 68.17H182.348V76.915H184.156ZM185.764 72.37H184.142V69.633H185.791C186.243 69.646 186.589 69.779 186.841 70.045C187.094 70.31 187.227 70.655 187.227 71.081C187.227 71.493 187.107 71.812 186.854 72.038C186.602 72.264 186.243 72.37 185.764 72.37ZM198.447 72.729C198.447 73.593 198.287 74.35 197.995 74.989C197.714 75.6037 197.261 76.1245 196.692 76.489C196.103 76.8457 195.426 77.03 194.738 77.021C194.006 77.021 193.368 76.849 192.797 76.503C192.225 76.157 191.786 75.653 191.481 75.015C191.161 74.364 191.015 73.619 191.002 72.782V72.344C191.002 71.48 191.161 70.722 191.467 70.071C191.773 69.421 192.212 68.915 192.783 68.57C193.367 68.2135 194.04 68.0291 194.724 68.038C195.456 68.038 196.107 68.211 196.665 68.57C197.237 68.915 197.676 69.42 197.981 70.071C198.287 70.722 198.447 71.48 198.447 72.344V72.729ZM196.612 72.33C196.612 71.413 196.453 70.722 196.12 70.244C195.788 69.766 195.323 69.526 194.711 69.526C194.1 69.526 193.634 69.766 193.315 70.231C192.983 70.696 192.823 71.387 192.81 72.304V72.729C192.81 73.619 192.97 74.31 193.302 74.802C193.634 75.294 194.1 75.546 194.724 75.546C195.323 75.546 195.788 75.307 196.12 74.829C196.439 74.35 196.612 73.659 196.612 72.756V72.33ZM205.998 68.942H205.891V67.786H204.15V68.929H203.977C203.335 68.9343 202.705 69.0985 202.142 69.407C201.602 69.7058 201.159 70.1536 200.866 70.697C200.56 71.254 200.414 71.879 200.414 72.583C200.414 73.274 200.56 73.886 200.866 74.43C201.172 74.975 201.597 75.387 202.156 75.693C202.714 75.999 203.339 76.145 204.03 76.145H204.15V77.261H205.891V76.145C207.021 76.145 207.939 75.813 208.603 75.148C209.281 74.484 209.614 73.633 209.614 72.583C209.614 71.866 209.454 71.241 209.148 70.683C208.854 70.1362 208.406 69.688 207.859 69.394C207.3 69.088 206.689 68.942 205.998 68.942ZM202.634 71.015C202.98 70.63 203.445 70.444 204.043 70.444V70.457H204.15V74.67H204.057C203.445 74.67 202.967 74.497 202.621 74.125C202.289 73.753 202.116 73.248 202.116 72.61C202.116 71.919 202.289 71.387 202.634 71.015ZM205.891 74.656V70.444H205.984C206.596 70.444 207.074 70.63 207.407 71.015C207.739 71.387 207.912 71.919 207.912 72.583C207.912 73.221 207.739 73.726 207.407 74.098C207.061 74.47 206.596 74.656 206.011 74.656H205.891ZM216.952 73.115H213.496V75.454H217.564V76.916H211.688V68.158H217.55V69.62H213.496V71.706H216.952V73.115ZM225.301 76.211C225.939 75.679 226.284 74.935 226.351 73.991V73.965H224.543C224.503 74.496 224.343 74.895 224.064 75.148C223.785 75.4 223.373 75.533 222.815 75.533C222.203 75.533 221.751 75.32 221.459 74.882C221.179 74.443 221.033 73.752 221.033 72.809V72.144C221.033 71.241 221.193 70.563 221.485 70.138C221.791 69.713 222.243 69.5 222.841 69.5C223.4 69.5 223.812 69.633 224.078 69.885C224.343 70.151 224.503 70.55 224.543 71.121H226.351C226.258 70.151 225.899 69.394 225.287 68.849C224.663 68.304 223.852 68.039 222.841 68.039C222.11 68.039 221.472 68.211 220.927 68.556C220.363 68.908 219.918 69.4221 219.651 70.031C219.358 70.669 219.212 71.413 219.212 72.251V72.782C219.212 74.098 219.544 75.134 220.182 75.892C220.821 76.649 221.711 77.022 222.828 77.022C223.852 77.022 224.663 76.742 225.301 76.211ZM235.418 73.991C235.352 74.935 235.006 75.679 234.368 76.211C233.73 76.742 232.919 77.021 231.895 77.021C230.779 77.021 229.888 76.649 229.25 75.891C228.598 75.134 228.279 74.098 228.279 72.782V72.251C228.279 71.413 228.426 70.669 228.718 70.031C228.985 69.4221 229.43 68.908 229.994 68.556C230.553 68.211 231.191 68.038 231.922 68.038C232.932 68.038 233.743 68.304 234.368 68.848C234.98 69.394 235.339 70.151 235.432 71.121H233.624C233.584 70.55 233.424 70.151 233.158 69.885C232.892 69.633 232.48 69.5 231.922 69.5C231.324 69.5 230.872 69.713 230.566 70.138C230.273 70.563 230.114 71.241 230.114 72.144V72.809C230.114 73.752 230.26 74.443 230.539 74.882C230.832 75.32 231.27 75.533 231.895 75.533C232.454 75.533 232.866 75.4 233.145 75.148C233.424 74.895 233.584 74.496 233.61 73.965H235.418V73.991ZM244.657 68.158H242.849L239.353 73.978V68.158H237.545V76.902H239.353L242.849 71.095V76.902H244.657V68.158ZM254.362 72.729C254.362 73.593 254.215 74.35 253.91 74.989C253.629 75.6037 253.176 76.1245 252.607 76.489C252.018 76.8441 251.341 77.0282 250.653 77.021C249.921 77.021 249.283 76.849 248.712 76.503C248.14 76.157 247.701 75.653 247.396 75.015C247.09 74.364 246.93 73.619 246.917 72.782V72.344C246.917 71.48 247.077 70.722 247.382 70.071C247.688 69.421 248.127 68.915 248.698 68.57C249.283 68.2151 249.955 68.0308 250.639 68.038C251.371 68.038 252.022 68.211 252.58 68.57C253.152 68.915 253.591 69.42 253.896 70.071C254.202 70.722 254.362 71.48 254.362 72.344V72.729ZM252.527 72.33C252.527 71.413 252.368 70.722 252.035 70.244C251.703 69.766 251.238 69.526 250.626 69.526C250.015 69.526 249.549 69.766 249.23 70.231C248.898 70.696 248.738 71.387 248.725 72.304V72.729C248.725 73.619 248.885 74.31 249.217 74.802C249.549 75.294 250.015 75.546 250.639 75.546C251.238 75.546 251.703 75.307 252.035 74.829C252.354 74.35 252.527 73.659 252.527 72.756V72.33ZM261.926 76.902H263.734V68.158H261.926V71.706H258.416V68.158H256.608V76.902H258.416V73.155H261.926V76.902ZM271.311 75.108H268.147L267.549 76.915H265.635L268.892 68.171H270.567L273.837 76.915H271.923L271.311 75.108ZM268.639 73.646H270.819L269.716 70.376L268.639 73.646ZM283.117 76.902V68.158H277.267L277.121 72.171C277.068 73.354 276.948 74.178 276.749 74.643C276.549 75.108 276.23 75.361 275.778 75.427L275.473 75.454V76.902H275.938C276.616 76.902 277.148 76.756 277.547 76.477C277.932 76.197 278.238 75.759 278.437 75.161C278.65 74.563 278.77 73.74 278.836 72.703L278.982 69.62H281.309V76.902H283.117ZM287.505 71.32H288.914C289.938 71.32 290.762 71.573 291.36 72.065C291.958 72.556 292.264 73.234 292.264 74.085C292.264 74.935 291.972 75.613 291.36 76.131C290.762 76.649 289.964 76.901 288.967 76.915H285.684V68.17H287.505V71.32ZM287.505 72.782V75.466H288.941C289.406 75.466 289.765 75.346 290.044 75.094C290.323 74.842 290.456 74.51 290.456 74.084C290.456 73.686 290.323 73.38 290.057 73.141C289.792 72.915 289.433 72.795 288.981 72.782H287.505ZM299.642 76.902H301.436V68.158H299.642V71.706H296.119V68.158H294.311V76.902H296.119V73.155H299.642V76.902ZM311.141 72.729C311.141 73.593 310.995 74.35 310.689 74.989C310.408 75.604 309.956 76.1248 309.386 76.489C308.797 76.8441 308.12 77.0284 307.432 77.021C306.701 77.021 306.063 76.849 305.491 76.503C304.919 76.157 304.481 75.653 304.175 75.015C303.869 74.364 303.71 73.619 303.696 72.782V72.344C303.696 71.48 303.856 70.722 304.162 70.071C304.467 69.421 304.906 68.915 305.478 68.57C306.063 68.2148 306.735 68.0305 307.419 68.038C308.15 68.038 308.801 68.211 309.36 68.57C309.931 68.915 310.37 69.42 310.676 70.071C310.982 70.722 311.141 71.48 311.141 72.344V72.729ZM309.306 72.33C309.306 71.413 309.147 70.722 308.815 70.244C308.482 69.766 308.017 69.526 307.405 69.526C306.807 69.526 306.329 69.766 306.009 70.231C305.677 70.696 305.518 71.387 305.504 72.304V72.729C305.504 73.619 305.664 74.31 305.996 74.802C306.329 75.294 306.794 75.546 307.419 75.546C308.017 75.546 308.482 75.307 308.815 74.829C309.134 74.35 309.306 73.659 309.306 72.756V72.33ZM317.987 74.51L315.741 68.158H313.388V76.902H315.196V74.51L315.01 70.39L317.363 76.902H318.599L320.965 70.391L320.779 74.511V76.902H322.587V68.158H320.221L317.987 74.51ZM328.45 72.291L330.045 68.158H332L328.942 75.374L328.689 75.852C328.237 76.636 327.546 77.035 326.615 77.035L325.991 77.009L325.977 75.56C326.07 75.573 326.23 75.587 326.443 75.587C326.695 75.587 326.895 75.547 327.054 75.454C327.214 75.361 327.333 75.201 327.44 74.962L327.666 74.391L324.595 68.158H326.536L328.45 72.291ZM154.084 91.918L151.837 85.566H149.471V94.324H151.279V91.932L151.106 87.799L153.459 94.324H154.695L157.048 87.799L156.876 91.932V94.324H158.684V85.566H156.317L154.084 91.918ZM163.098 92.517L162.499 94.324H160.585L163.842 85.58H165.517L168.787 94.324H166.873L166.262 92.517H163.098ZM163.589 91.055H165.783L164.68 87.786L163.589 91.055ZM176.14 93.619C176.764 93.087 177.11 92.343 177.176 91.399V91.373H175.382C175.342 91.905 175.182 92.303 174.903 92.556C174.624 92.808 174.212 92.941 173.654 92.941C173.029 92.941 172.59 92.728 172.298 92.29C172.018 91.851 171.872 91.16 171.872 90.217V89.552C171.872 88.649 172.032 87.972 172.324 87.546C172.63 87.121 173.082 86.908 173.68 86.908C174.238 86.908 174.651 87.041 174.916 87.293C175.182 87.559 175.342 87.958 175.382 88.529H177.19C177.097 87.559 176.738 86.802 176.126 86.257C175.501 85.712 174.69 85.447 173.68 85.447C172.949 85.447 172.311 85.619 171.766 85.965C171.207 86.31 170.782 86.802 170.489 87.44C170.197 88.078 170.051 88.822 170.051 89.659V90.19C170.051 91.506 170.383 92.543 171.021 93.3C171.659 94.057 172.55 94.43 173.667 94.43C174.69 94.43 175.515 94.164 176.14 93.619ZM185.924 87.029H183.251V94.31H181.443V87.028H178.798V85.566H185.924V87.029ZM189.725 90.523H193.195V89.115H189.725V87.028H193.78V85.566H187.931V94.324H193.793V92.875H189.725V90.523ZM197.729 91.254V94.324H195.921V85.58H199.337C199.989 85.58 200.574 85.7 201.066 85.939C201.571 86.179 201.943 86.524 202.222 86.962C202.488 87.401 202.621 87.906 202.621 88.477C202.621 89.341 202.329 90.005 201.744 90.51C201.159 91.015 200.348 91.254 199.311 91.254H197.729ZM197.729 89.779H199.337C199.816 89.779 200.175 89.673 200.428 89.447C200.68 89.221 200.8 88.902 200.8 88.49C200.8 88.065 200.68 87.72 200.428 87.454C200.175 87.188 199.829 87.055 199.377 87.042H197.729V89.779ZM210.664 93.619C211.302 93.087 211.648 92.343 211.714 91.399V91.373H209.906C209.866 91.905 209.707 92.303 209.428 92.556C209.148 92.808 208.736 92.941 208.178 92.941C207.566 92.941 207.114 92.728 206.822 92.29C206.543 91.851 206.396 91.16 206.396 90.217V89.552C206.396 88.649 206.556 87.972 206.849 87.546C207.154 87.121 207.606 86.908 208.204 86.908C208.763 86.908 209.175 87.041 209.441 87.293C209.707 87.559 209.866 87.958 209.906 88.529H211.714C211.621 87.559 211.262 86.802 210.651 86.257C210.026 85.712 209.215 85.447 208.204 85.447C207.473 85.447 206.835 85.619 206.29 85.965C205.726 86.317 205.281 86.8311 205.014 87.44C204.721 88.078 204.575 88.822 204.575 89.659V90.19C204.575 91.506 204.908 92.543 205.546 93.3C206.184 94.057 207.075 94.43 208.191 94.43C209.215 94.43 210.039 94.164 210.664 93.619ZM220.462 87.029H217.789V94.31H215.981V87.028H213.336V85.566H220.462V87.029ZM222.456 85.566V94.31H225.859C226.856 94.297 227.628 94.085 228.159 93.646C228.704 93.207 228.97 92.57 228.97 91.732C228.97 91.241 228.837 90.829 228.585 90.483C228.319 90.1412 227.943 89.9017 227.521 89.805C227.894 89.6684 228.215 89.4175 228.438 89.088C228.664 88.769 228.771 88.384 228.771 87.958C228.771 87.174 228.492 86.59 227.947 86.178C227.388 85.766 226.591 85.566 225.527 85.566H222.456ZM225.593 89.234H224.264V87.014H225.527C226.019 87.014 226.391 87.108 226.617 87.281C226.843 87.467 226.963 87.746 226.963 88.144C226.963 88.849 226.497 89.221 225.593 89.234ZM224.264 92.875V90.51H225.913C226.75 90.523 227.162 90.935 227.162 91.732C227.162 92.092 227.043 92.37 226.803 92.57C226.564 92.769 226.232 92.875 225.806 92.875H224.264ZM234.234 89.699L235.83 85.566H237.771L234.713 92.782L234.46 93.261C234.008 94.045 233.317 94.443 232.387 94.443L231.748 94.417L231.735 92.968C231.828 92.981 231.988 92.995 232.2 92.995C232.453 92.995 232.652 92.955 232.812 92.862C232.971 92.769 233.091 92.61 233.197 92.37L233.423 91.799L230.353 85.566H232.307L234.234 89.699ZM0 61.221C0 95.227 27.958 122.908 62.323 122.908C69.622 122.908 76.773 121.672 83.567 119.227L79.074 106.722C73.716 108.649 68.079 109.619 62.324 109.619C35.296 109.619 13.294 87.905 13.294 61.221C13.294 47.893 18.665 35.468 28.423 26.259L19.29 16.598C6.846 28.358 0 44.199 0 61.221Z" fill="white"/>
</svg>
