<svg width="47" height="28" viewBox="0 0 47 28" fill="none" xmlns="http://www.w3.org/2000/svg">
<path d="M23.5 24.6555C21.0109 26.741 17.7822 28 14.254 28C6.38175 28 0 21.732 0 14C0 6.26801 6.38175 0 14.254 0C17.7822 0 21.0109 1.25897 23.5 3.34447C25.989 1.25897 29.2178 0 32.7459 0C40.6182 0 47 6.26801 47 14C47 21.732 40.6182 28 32.7459 28C29.2178 28 25.989 26.741 23.5 24.6555Z" fill="#ED0006"/>
<path d="M23.5 24.6555C26.5648 22.0876 28.5081 18.2667 28.5081 14C28.5081 9.73329 26.5648 5.91238 23.5 3.34452C25.9891 1.259 29.2179 0 32.746 0C40.6183 0 47.0001 6.26801 47.0001 14C47.0001 21.732 40.6183 28 32.746 28C29.2179 28 25.9891 26.741 23.5 24.6555Z" fill="#F9A000"/>
<path d="M23.5 24.6556C26.5647 22.0877 28.5081 18.2668 28.5081 14C28.5081 9.73331 26.5647 5.91237 23.5 3.34451C20.4352 5.91237 18.4919 9.73331 18.4919 14C18.4919 18.2668 20.4352 22.0877 23.5 24.6556Z" fill="#FF5E00"/>
</svg>