<svg width="30" height="30" viewBox="0 0 30 30" fill="none" xmlns="http://www.w3.org/2000/svg">
<path d="M15 29.5579C12.1207 29.5579 9.3061 28.7041 6.91206 27.1044C4.51803 25.5048 2.65211 23.2312 1.55025 20.571C0.448401 17.9109 0.160106 14.9838 0.721825 12.1599C1.28354 9.33592 2.67005 6.74195 4.70601 4.70599C6.74197 2.67003 9.33593 1.28353 12.1599 0.72181C14.9838 0.16009 17.911 0.448385 20.5711 1.55024C23.2312 2.65209 25.5048 4.51801 27.1044 6.91205C28.7041 9.30608 29.5579 12.1207 29.5579 15C29.5535 18.8596 28.0183 22.5599 25.2891 25.2891C22.5599 28.0183 18.8596 29.5535 15 29.5579ZM15 2.41577C12.5111 2.41577 10.078 3.15382 8.00858 4.53659C5.93912 5.91936 4.32617 7.88475 3.3737 10.1842C2.42123 12.4837 2.17202 15.0139 2.65759 17.455C3.14315 19.8961 4.34168 22.1384 6.10161 23.8984C7.86155 25.6583 10.1038 26.8568 12.5449 27.3424C14.986 27.828 17.5163 27.5787 19.8158 26.6263C22.1152 25.6738 24.0806 24.0609 25.4634 21.9914C26.8462 19.9219 27.5842 17.4889 27.5842 15C27.5804 11.6636 26.2534 8.46494 23.8942 6.10575C21.535 3.74657 18.3364 2.41953 15 2.41577Z" fill="#99A1A1"/>
<path d="M15 22.2C15.8188 22.2 16.4826 21.5362 16.4826 20.7174C16.4826 19.8985 15.8188 19.2347 15 19.2347C14.1812 19.2347 13.5174 19.8985 13.5174 20.7174C13.5174 21.5362 14.1812 22.2 15 22.2Z" fill="#99A1A1"/>
<path d="M14.9755 17.0282C14.7316 17.0284 14.497 16.9346 14.3205 16.7662C14.1441 16.5978 14.0393 16.3679 14.0282 16.1242L13.6926 9.11132C13.6853 8.93525 13.7137 8.75952 13.7761 8.59473C13.8385 8.42994 13.9337 8.27952 14.0559 8.15254C14.1781 8.02556 14.3248 7.92465 14.487 7.85592C14.6493 7.78719 14.8238 7.75205 15 7.75263C15.1765 7.75264 15.3512 7.78849 15.5135 7.85799C15.6757 7.92749 15.8222 8.02921 15.944 8.15698C16.0657 8.28475 16.1603 8.43591 16.222 8.60131C16.2836 8.76671 16.3111 8.9429 16.3026 9.11921L15.9182 16.1305C15.9055 16.3722 15.8007 16.5999 15.6254 16.7669C15.4501 16.9338 15.2176 17.0273 14.9755 17.0282Z" fill="#99A1A1"/>
</svg>
