<svg width="48" height="20" viewBox="0 0 48 20" fill="none" xmlns="http://www.w3.org/2000/svg">
<g clip-path="url(#clip0_1_158)">
<path d="M0.676086 7.33514V10.0171L7.524 9.22128V6.31842L0.676086 7.33514ZM2.86137 10.1803V19.3707H5.36846V9.90956L2.86137 10.1803ZM8.44884 6.18114V19.3707H11.0906V5.78871L8.44884 6.18114ZM11.5828 5.71557V8.74971L15.3975 8.30628V5.14928L11.5828 5.71557ZM11.5828 11.008V14.0974L14.0869 13.9531V10.7803L11.5828 11.008ZM11.5828 16.3243V19.3707H15.3975V16.2027L11.5828 16.3243ZM25.2628 3.67971V19.3707H28.7259V3.16542L25.2628 3.67971ZM29.3727 3.06928V6.67857L34.4195 6.09228V2.31971L29.3727 3.06928ZM29.3727 9.39299V13.0691L32.6806 12.8783V9.09371L29.3727 9.39299ZM29.3727 15.7561V19.3707H34.4195V15.5951L29.3727 15.7561ZM16.4068 4.99914V19.3707H19.4161V4.55214L16.4068 4.99914ZM19.9778 16.0567V19.3706H24.3459V15.9174L19.9778 16.0567ZM45.7344 2.14228C44.6399 1.04971 43.0351 0.601566 41.2798 0.867994V4.87114C41.9906 4.82942 42.5666 5.10814 42.8232 5.66928C43.2284 6.55399 42.8104 7.88142 41.8241 9.11128C40.3019 11.0091 36.2541 14.8937 36.2541 14.8937L42.0649 14.6919C45.6154 11.027 46.8905 8.80242 47.1193 6.02599C47.2395 4.55714 46.7349 3.14185 45.7344 2.14228ZM47.324 19.3707V15.182L35.5379 15.5571M35.5379 15.5571L35.5391 19.3706H47.324M40.6022 0.957851C37.1783 1.72828 35.4969 4.38971 35.6909 8.73242L39.3416 8.39014C39.1753 5.93671 39.8856 5.35471 40.604 5.03471L40.6022 0.957851Z" fill="white"/>
</g>
<defs>
<clipPath id="clip0_1_158">
<rect width="48" height="20" fill="white"/>
</clipPath>
</defs>
</svg>
